<svg width="40" height="40" viewBox="0 0 40 40" fill="#000" xmlns="http://www.w3.org/2000/svg">
<path d="M4.99996 35C4.08329 35 3.29885 34.6739 2.64663 34.0217C1.9944 33.3694 1.66774 32.5844 1.66663 31.6667V11.6667C1.66663 10.75 1.99329 9.96554 2.64663 9.31332C3.29996 8.6611 4.0844 8.33443 4.99996 8.33332H10.25L13.3333 4.99999H23.3333V8.33332H14.7916L11.75 11.6667H4.99996V31.6667H31.6666V16.6667H35V31.6667C35 32.5833 34.6738 33.3683 34.0216 34.0217C33.3694 34.675 32.5844 35.0011 31.6666 35H4.99996ZM31.6666 11.6667V8.33332H28.3333V4.99999H31.6666V1.66666H35V4.99999H38.3333V8.33332H35V11.6667H31.6666ZM18.3333 29.1667C20.4166 29.1667 22.1877 28.4378 23.6466 26.98C25.1055 25.5222 25.8344 23.7511 25.8333 21.6667C25.8333 19.5833 25.1044 17.8128 23.6466 16.355C22.1888 14.8972 20.4177 14.1678 18.3333 14.1667C16.25 14.1667 14.4794 14.8961 13.0216 16.355C11.5638 17.8139 10.8344 19.5844 10.8333 21.6667C10.8333 23.75 11.5627 25.5211 13.0216 26.98C14.4805 28.4389 16.2511 29.1678 18.3333 29.1667ZM18.3333 25.8333C17.1666 25.8333 16.1805 25.4305 15.375 24.625C14.5694 23.8194 14.1666 22.8333 14.1666 21.6667C14.1666 20.5 14.5694 19.5139 15.375 18.7083C16.1805 17.9028 17.1666 17.5 18.3333 17.5C19.5 17.5 20.4861 17.9028 21.2916 18.7083C22.0972 19.5139 22.5 20.5 22.5 21.6667C22.5 22.8333 22.0972 23.8194 21.2916 24.625C20.4861 25.4305 19.5 25.8333 18.3333 25.8333Z" fill="#000"/>
</svg>
