<svg width="26" height="25" viewBox="0 0 26 25" fill="#000000" xmlns="http://www.w3.org/2000/svg">
<path fill-rule="evenodd" clip-rule="evenodd" d="M17.6478 11.3958C17.9433 11.6888 18.1093 12.0859 18.1093 12.5C18.1093 12.9141 17.9433 13.3112 17.6478 13.6042L11.6982 19.4979C11.4022 19.7909 11.0008 19.9554 10.5823 19.9553C10.1638 19.9552 9.76242 19.7905 9.46656 19.4974C9.1707 19.2043 9.00454 18.8068 9.00464 18.3923C9.00474 17.9779 9.17109 17.5805 9.46709 17.2875L14.3017 12.5L9.46709 7.71249C9.17952 7.41793 9.02029 7.02332 9.02369 6.61363C9.02709 6.20394 9.19285 5.81197 9.48526 5.52213C9.77767 5.23229 10.1733 5.06778 10.5871 5.06403C11.0008 5.06028 11.3994 5.21759 11.6971 5.50207L17.6489 11.3948L17.6478 11.3958Z" fill="#000"/>
</svg>
