<svg width="40" height="40" viewBox="0 0 40 40" fill="#000000" xmlns="http://www.w3.org/2000/svg">
<path d="M16.6667 10H23.3334C23.3334 9.11596 22.9822 8.26811 22.3571 7.64299C21.7319 7.01787 20.8841 6.66668 20 6.66668C19.116 6.66668 18.2681 7.01787 17.643 7.64299C17.0179 8.26811 16.6667 9.11596 16.6667 10ZM13.3334 10C13.3334 8.2319 14.0358 6.53621 15.286 5.28596C16.5362 4.03572 18.2319 3.33334 20 3.33334C21.7682 3.33334 23.4638 4.03572 24.7141 5.28596C25.9643 6.53621 26.6667 8.2319 26.6667 10H35C35.4421 10 35.866 10.1756 36.1786 10.4882C36.4911 10.8007 36.6667 11.2246 36.6667 11.6667C36.6667 12.1087 36.4911 12.5326 36.1786 12.8452C35.866 13.1577 35.4421 13.3333 35 13.3333H33.53L32.0534 30.5667C31.9114 32.2308 31.15 33.781 29.9198 34.9106C28.6896 36.0402 27.0802 36.6669 25.41 36.6667H14.59C12.9199 36.6669 11.3105 36.0402 10.0803 34.9106C8.85008 33.781 8.08867 32.2308 7.94671 30.5667L6.47004 13.3333H5.00004C4.55801 13.3333 4.13409 13.1577 3.82153 12.8452C3.50897 12.5326 3.33337 12.1087 3.33337 11.6667C3.33337 11.2246 3.50897 10.8007 3.82153 10.4882C4.13409 10.1756 4.55801 10 5.00004 10H13.3334ZM25 20C25 19.558 24.8244 19.1341 24.5119 18.8215C24.1993 18.5089 23.7754 18.3333 23.3334 18.3333C22.8913 18.3333 22.4674 18.5089 22.1549 18.8215C21.8423 19.1341 21.6667 19.558 21.6667 20V26.6667C21.6667 27.1087 21.8423 27.5326 22.1549 27.8452C22.4674 28.1577 22.8913 28.3333 23.3334 28.3333C23.7754 28.3333 24.1993 28.1577 24.5119 27.8452C24.8244 27.5326 25 27.1087 25 26.6667V20ZM16.6667 18.3333C17.1087 18.3333 17.5327 18.5089 17.8452 18.8215C18.1578 19.1341 18.3334 19.558 18.3334 20V26.6667C18.3334 27.1087 18.1578 27.5326 17.8452 27.8452C17.5327 28.1577 17.1087 28.3333 16.6667 28.3333C16.2247 28.3333 15.8008 28.1577 15.4882 27.8452C15.1756 27.5326 15 27.1087 15 26.6667V20C15 19.558 15.1756 19.1341 15.4882 18.8215C15.8008 18.5089 16.2247 18.3333 16.6667 18.3333ZM11.2667 30.2833C11.3377 31.1157 11.7187 31.891 12.3341 32.4559C12.9496 33.0207 13.7547 33.3339 14.59 33.3333H25.41C26.2448 33.333 27.0491 33.0195 27.6639 32.4547C28.2786 31.89 28.6591 31.1151 28.73 30.2833L30.1834 13.3333H9.81671L11.2667 30.2833Z" fill="#000"/>
</svg>
