<svg width="40" height="40" viewBox="0 0 40 40" fill="#000" xmlns="http://www.w3.org/2000/svg">
<path d="M21.1834 17.9833C21.0249 17.8316 20.838 17.7127 20.6334 17.6333C20.2276 17.4666 19.7725 17.4666 19.3667 17.6333C19.1621 17.7127 18.9752 17.8316 18.8167 17.9833L15.4834 21.3167C15.1695 21.6305 14.9932 22.0562 14.9932 22.5C14.9932 22.9438 15.1695 23.3695 15.4834 23.6833C15.7972 23.9972 16.2229 24.1735 16.6667 24.1735C17.1105 24.1735 17.5362 23.9972 17.85 23.6833L18.3334 23.1833V27.5C18.3334 27.942 18.509 28.3659 18.8215 28.6785C19.1341 28.9911 19.558 29.1667 20 29.1667C20.4421 29.1667 20.866 28.9911 21.1786 28.6785C21.4911 28.3659 21.6667 27.942 21.6667 27.5V23.1833L22.15 23.6833C22.305 23.8395 22.4893 23.9635 22.6924 24.0481C22.8955 24.1328 23.1134 24.1763 23.3334 24.1763C23.5534 24.1763 23.7712 24.1328 23.9743 24.0481C24.1774 23.9635 24.3618 23.8395 24.5167 23.6833C24.6729 23.5284 24.7969 23.3441 24.8815 23.141C24.9661 22.9379 25.0097 22.72 25.0097 22.5C25.0097 22.28 24.9661 22.0621 24.8815 21.859C24.7969 21.6559 24.6729 21.4716 24.5167 21.3167L21.1834 17.9833ZM31.6667 9.16666H21.2L20.6667 7.5C20.321 6.52205 19.6796 5.67584 18.8315 5.0786C17.9835 4.48136 16.9706 4.16266 15.9334 4.16666H8.33337C7.00729 4.16666 5.73552 4.69345 4.79784 5.63113C3.86016 6.56881 3.33337 7.84058 3.33337 9.16666V30.8333C3.33337 32.1594 3.86016 33.4312 4.79784 34.3689C5.73552 35.3065 7.00729 35.8333 8.33337 35.8333H31.6667C32.9928 35.8333 34.2646 35.3065 35.2022 34.3689C36.1399 33.4312 36.6667 32.1594 36.6667 30.8333V14.1667C36.6667 12.8406 36.1399 11.5688 35.2022 10.6311C34.2646 9.69345 32.9928 9.16666 31.6667 9.16666ZM33.3334 30.8333C33.3334 31.2754 33.1578 31.6993 32.8452 32.0118C32.5327 32.3244 32.1087 32.5 31.6667 32.5H8.33337C7.89135 32.5 7.46742 32.3244 7.15486 32.0118C6.8423 31.6993 6.66671 31.2754 6.66671 30.8333V9.16666C6.66671 8.72464 6.8423 8.30071 7.15486 7.98815C7.46742 7.67559 7.89135 7.5 8.33337 7.5H15.9334C16.2828 7.49909 16.6236 7.60803 16.9078 7.8114C17.1919 8.01477 17.4049 8.30229 17.5167 8.63333L18.4167 11.3667C18.5285 11.6977 18.7415 11.9852 19.0257 12.1886C19.3098 12.392 19.6506 12.5009 20 12.5H31.6667C32.1087 12.5 32.5327 12.6756 32.8452 12.9882C33.1578 13.3007 33.3334 13.7246 33.3334 14.1667V30.8333Z" fill="#000"/>
</svg>
