<svg width="60" height="60" viewBox="0 0 60 60" fill="none" xmlns="http://www.w3.org/2000/svg">
<path d="M28.91 22.7663L19.5188 26.635V36.1725C19.5188 41.2825 30 46.1638 30 46.1638C30 46.1638 40.4813 41.2825 40.4813 36.1725V26.635L31.09 22.7663C30.7446 22.6223 30.3742 22.5482 30 22.5482C29.6258 22.5482 29.2554 22.6223 28.91 22.7663Z" stroke="#000" stroke-linecap="round" stroke-linejoin="round"/>
<path d="M25.9187 33.805L29.54 37.4012L35.365 29.9175" stroke="#000" stroke-linecap="round" stroke-linejoin="round"/>
<path d="M52.4662 25.88L32.4312 8.01126C31.7621 7.41438 30.8967 7.08452 30 7.08452C29.1033 7.08452 28.2379 7.41438 27.5687 8.01126L7.53375 25.88C6.19125 27.0775 7.03875 29.3013 8.83875 29.3013H11.4012V50.0725C11.4016 50.8265 11.7013 51.5495 12.2346 52.0825C12.7679 52.6156 13.491 52.915 14.245 52.915H45.755C46.509 52.915 47.2321 52.6156 47.7654 52.0825C48.2987 51.5495 48.5984 50.8265 48.5987 50.0725V29.3H51.1612C52.9612 29.3 53.8087 27.0763 52.4662 25.8788V25.88Z" stroke="#000" stroke-linecap="round" stroke-linejoin="round"/>
</svg>
