<svg width="25" height="26" viewBox="0 0 25 26" fill="#000" xmlns="http://www.w3.org/2000/svg">
<path d="M12.5 0C19.1775 0 25 5.733 25 12.35C25 18.8552 19.3088 23.9746 12.5 23.9746C11.0437 23.9754 9.59656 23.7358 8.2125 23.2648C7.6325 23.8498 7.43375 24.0487 6.2025 25.2837C5.315 25.9805 4.48 26.2171 3.73375 25.7777C2.98125 25.3357 2.755 24.4751 2.90875 23.3415L3.40875 20.3268C1.2375 18.2026 0 15.3946 0 12.35C0 5.733 5.82125 0 12.5 0ZM12.5 1.82C6.7675 1.82 1.75 6.76 1.75 12.35C1.75 15.0085 2.89 17.4564 4.9 19.279L4.925 19.3011L5.29625 19.6365L5.2125 20.1435L5.04 21.1887L4.99375 21.4669L4.6375 23.6223C4.61649 23.7674 4.60397 23.9137 4.6 24.0604V24.1839C4.6 24.1904 4.59875 24.193 4.5975 24.1943C4.60625 24.1813 4.77625 24.1254 5.0675 23.9044L7.78 21.1666L8.2975 21.3694C9.64178 21.891 11.0652 22.1574 12.5 22.1559C18.395 22.1559 23.25 17.7879 23.25 12.35C23.25 6.7613 18.2325 1.82 12.5 1.82ZM6.53375 10.1569C6.78557 10.1473 7.03667 10.1907 7.27203 10.2843C7.50739 10.3779 7.72219 10.5199 7.9036 10.7018C8.08501 10.8837 8.2293 11.1018 8.32786 11.343C8.42641 11.5841 8.4772 11.8435 8.4772 12.1056C8.4772 12.3677 8.42641 12.6271 8.32786 12.8682C8.2293 13.1094 8.08501 13.3275 7.9036 13.5094C7.72219 13.6913 7.50739 13.8333 7.27203 13.9269C7.03667 14.0205 6.78557 14.0639 6.53375 14.0543C6.04865 14.0359 5.58932 13.8225 5.25239 13.4591C4.91547 13.0956 4.7272 12.6104 4.7272 12.1056C4.7272 11.6008 4.91547 11.1156 5.25239 10.7521C5.58932 10.3887 6.04865 10.1753 6.53375 10.1569ZM12.7812 10.1569C13.0331 10.1473 13.2842 10.1907 13.5195 10.2843C13.7549 10.3779 13.9697 10.5199 14.1511 10.7018C14.3325 10.8837 14.4768 11.1018 14.5754 11.343C14.6739 11.5841 14.7247 11.8435 14.7247 12.1056C14.7247 12.3677 14.6739 12.6271 14.5754 12.8682C14.4768 13.1094 14.3325 13.3275 14.1511 13.5094C13.9697 13.6913 13.7549 13.8333 13.5195 13.9269C13.2842 14.0205 13.0331 14.0639 12.7812 14.0543C12.2961 14.0359 11.8368 13.8225 11.4999 13.4591C11.163 13.0956 10.9747 12.6104 10.9747 12.1056C10.9747 11.6008 11.163 11.1156 11.4999 10.7521C11.8368 10.3887 12.2961 10.1753 12.7812 10.1569ZM19.0275 10.1569C19.2793 10.1473 19.5304 10.1907 19.7658 10.2843C20.0011 10.3779 20.2159 10.5199 20.3974 10.7018C20.5788 10.8837 20.7231 11.1018 20.8216 11.343C20.9202 11.5841 20.971 11.8435 20.971 12.1056C20.971 12.3677 20.9202 12.6271 20.8216 12.8682C20.7231 13.1094 20.5788 13.3275 20.3974 13.5094C20.2159 13.6913 20.0011 13.8333 19.7658 13.9269C19.5304 14.0205 19.2793 14.0639 19.0275 14.0543C18.5424 14.0359 18.0831 13.8225 17.7461 13.4591C17.4092 13.0956 17.221 12.6104 17.221 12.1056C17.221 11.6008 17.4092 11.1156 17.7461 10.7521C18.0831 10.3887 18.5424 10.1753 19.0275 10.1569Z" fill="#000"/>
</svg>
