<svg width="14" height="14" viewBox="0 0 14 14" fill="none" xmlns="http://www.w3.org/2000/svg">
<g clip-path="url(#clip0_19_568)">
<path fill-rule="evenodd" clip-rule="evenodd" d="M13.854 0.145998C13.9225 0.214483 13.9697 0.301415 13.9898 0.396218C14.0098 0.491022 14.0019 0.589612 13.967 0.679998L8.96698 13.68C8.93159 13.772 8.8698 13.8515 8.78937 13.9084C8.70895 13.9654 8.61348 13.9974 8.51496 14.0002C8.41644 14.0031 8.31927 13.9768 8.23565 13.9247C8.15203 13.8725 8.08569 13.7968 8.04498 13.707L5.95398 9.107L9.02998 6.03C9.16246 5.88782 9.23458 5.69978 9.23115 5.50548C9.22773 5.31117 9.14901 5.12579 9.0116 4.98838C8.87419 4.85096 8.6888 4.77225 8.4945 4.76882C8.3002 4.76539 8.11215 4.83752 7.96998 4.97L4.89298 8.046L0.292978 5.956C0.202945 5.91534 0.126974 5.84891 0.0746555 5.76512C0.0223366 5.68132 -0.00398621 5.5839 -0.000990718 5.48516C0.00200477 5.38641 0.0341843 5.29077 0.0914865 5.21029C0.148789 5.12982 0.228645 5.06813 0.320978 5.033L13.321 0.0329976C13.4112 -0.00172783 13.5096 -0.00953539 13.6042 0.0105208C13.6988 0.0305771 13.7856 0.0776364 13.854 0.145998Z" fill="#000"/>
</g>
<defs>
<clipPath id="clip0_19_568">
<rect width="14" height="14" fill="white"/>
</clipPath>
</defs>
</svg>
