<svg width="16" height="16" viewBox="0 0 16 16" fill="none" xmlns="http://www.w3.org/2000/svg">
<path d="M4.66666 8.33333C4.75507 8.33333 4.83985 8.29821 4.90236 8.2357C4.96488 8.17319 4.99999 8.0884 4.99999 8C4.99999 7.91159 4.96488 7.82681 4.90236 7.76429C4.83985 7.70178 4.75507 7.66666 4.66666 7.66666C4.57826 7.66666 4.49347 7.70178 4.43096 7.76429C4.36845 7.82681 4.33333 7.91159 4.33333 8C4.33333 8.0884 4.36845 8.17319 4.43096 8.2357C4.49347 8.29821 4.57826 8.33333 4.66666 8.33333ZM7.99999 8.33333C8.0884 8.33333 8.17319 8.29821 8.2357 8.2357C8.29821 8.17319 8.33333 8.0884 8.33333 8C8.33333 7.91159 8.29821 7.82681 8.2357 7.76429C8.17319 7.70178 8.0884 7.66666 7.99999 7.66666C7.91159 7.66666 7.8268 7.70178 7.76429 7.76429C7.70178 7.82681 7.66666 7.91159 7.66666 8C7.66666 8.0884 7.70178 8.17319 7.76429 8.2357C7.8268 8.29821 7.91159 8.33333 7.99999 8.33333ZM11.3333 8.33333C11.4217 8.33333 11.5065 8.29821 11.569 8.2357C11.6315 8.17319 11.6667 8.0884 11.6667 8C11.6667 7.91159 11.6315 7.82681 11.569 7.76429C11.5065 7.70178 11.4217 7.66666 11.3333 7.66666C11.2449 7.66666 11.1601 7.70178 11.0976 7.76429C11.0351 7.82681 11 7.91159 11 8C11 8.0884 11.0351 8.17319 11.0976 8.2357C11.1601 8.29821 11.2449 8.33333 11.3333 8.33333Z" fill="black" stroke="#19949E" stroke-width="1.5" stroke-linecap="round" stroke-linejoin="round"/>
<path d="M7.99999 14.6667C11.682 14.6667 14.6667 11.682 14.6667 8C14.6667 4.318 11.682 1.33333 7.99999 1.33333C4.31799 1.33333 1.33333 4.318 1.33333 8C1.33333 11.682 4.31799 14.6667 7.99999 14.6667Z" stroke="#19949E" stroke-width="1.5" stroke-linecap="round" stroke-linejoin="round"/>
</svg>
