<svg width="40" height="29" viewBox="0 0 40 29" fill="#000" xmlns="http://www.w3.org/2000/svg">
<g clip-path="url(#clip0_41_174)">
<path d="M16.6667 6.44444H26.6667V8.05555H16.6667V6.44444Z" fill="#000"/>
<path d="M16.6667 9.66667H26.6667V11.2778H16.6667V9.66667Z" fill="#000"/>
<path d="M16.6667 12.8889H26.6667V14.5H16.6667V12.8889Z" fill="#000"/>
<path d="M16.6667 16.1111H26.6667V17.7222H16.6667V16.1111Z" fill="#000"/>
<path d="M16.6667 19.3333H26.6667V20.9444H16.6667V19.3333Z" fill="#000"/>
<path d="M12.2222 6.44444H14.4444V8.05555H12.2222V6.44444Z" fill="#000"/>
<path d="M12.2222 9.66667H14.4444V11.2778H12.2222V9.66667Z" fill="#000"/>
<path d="M12.2222 12.8889H14.4444V14.5H12.2222V12.8889Z" fill="#000"/>
<path d="M12.2222 16.1111H14.4444V17.7222H12.2222V16.1111Z" fill="#000"/>
<path d="M12.2222 19.3333H14.4444V20.9444H12.2222V19.3333Z" fill="#000"/>
<path d="M31.1111 1.61111H8.88889C8.29952 1.61111 7.73429 1.78086 7.31754 2.083C6.90079 2.38514 6.66667 2.79493 6.66667 3.22223V25.7778C6.66667 26.2051 6.90079 26.6149 7.31754 26.917C7.73429 27.2192 8.29952 27.3889 8.88889 27.3889H31.1111C31.7005 27.3889 32.2657 27.2192 32.6825 26.917C33.0992 26.6149 33.3333 26.2051 33.3333 25.7778V3.22223C33.3333 2.79493 33.0992 2.38514 32.6825 2.083C32.2657 1.78086 31.7005 1.61111 31.1111 1.61111ZM31.1111 25.7778H8.88889V3.22223H31.1111V25.7778Z" fill="#000"/>
</g>
<defs>
<clipPath id="clip0_41_174">
<rect width="40" height="29" fill="red"/>
</clipPath>
</defs>
</svg>
